# xmcd
#
# Track frame offsets: 
#        150
#        19106
#        40293
#        50783
#        74494
#        96631
#        110966
#        127415
#        142322
#        162483
#        184140
#        196584
#        223336
#        238832
#        269944
#
# Disc length: 4100 seconds
#
# Revision: 0
# Processed by: cddbd v1.5.2PL0 Copyright (c) Steve Scherf et al.
# Submitted via: ExactAudioCopyFreeDBPlugin 1.0
#
DISCID=0c10020f
DTITLE=Various Artists / Classic Rock Sampler - Summer Daze
DYEAR=2015
DGENRE=Rock
TTITLE0=Duff McKagan / How To be A Man
TTITLE1=The Dead Daisies / Mexico
TTITLE2=Ash / Shutdown
TTITLE3=Art Of Anarchy / 'Til The Dust Is Gone
TTITLE4=Vanilla Fudge / I Can See For Miles
TTITLE5=Banditos / Still Sober (After All These Years)
TTITLE6=Hardcore Superstar / Don't Mean Shit
TTITLE7=Whiskey Myers / Early Morning Shakes
TTITLE8=Sonny Landreth / Where They Will
TTITLE9=Raven / Thunder Down Under
TTITLE10=Turbowolf / Rabbits Foot
TTITLE11=Gwyn Ashton / For Your Love
TTITLE12=Mother's Finest / Angels
TTITLE13=Prong / Cortez The Killer
TTITLE14=Pond / Man It Feels Like Space Again
EXTD=
EXTT0=
EXTT1=
EXTT2=
EXTT3=
EXTT4=
EXTT5=
EXTT6=
EXTT7=
EXTT8=
EXTT9=
EXTT10=
EXTT11=
EXTT12=
EXTT13=
EXTT14=
PLAYORDER=
